<?xml version="1.0" standalone="no"?>
<!DOCTYPE svg PUBLIC "-//W3C//DTD SVG 20010904//EN"
 "http://www.w3.org/TR/2001/REC-SVG-20010904/DTD/svg10.dtd">
<svg version="1.0" xmlns="http://www.w3.org/2000/svg"
 width="1024.000000pt" height="1024.000000pt" viewBox="0 0 1024.000000 1024.000000"
 preserveAspectRatio="xMidYMid meet">

<g transform="translate(0.000000,1024.000000) scale(0.100000,-0.100000)"
fill="#000000" stroke="none">
<path d="M1130 10225 c-121 -24 -274 -66 -351 -96 -149 -57 -328 -182 -427
-298 -150 -174 -285 -450 -331 -678 -21 -101 -21 -102 -21 -3995 0 -4182 -2
-3982 49 -4163 30 -108 86 -246 143 -358 46 -91 66 -116 173 -223 182 -184
383 -309 575 -358 236 -61 -106 -56 4175 -56 3878 0 3914 0 4032 20 65 11 152
29 193 41 96 26 322 150 429 235 91 74 210 211 271 312 83 140 167 380 189
542 10 65 12 1026 9 4020 -3 3748 -4 3939 -22 4010 -58 246 -202 520 -345 660
-88 86 -235 190 -346 245 -94 46 -250 101 -376 131 -71 18 -253 19 -4014 20
-3223 2 -3952 0 -4005 -11z m8011 -285 c178 -36 358 -121 477 -222 170 -147
310 -406 341 -631 15 -106 15 -7811 1 -7912 -24 -165 -68 -288 -152 -421 -70
-113 -154 -204 -245 -265 -92 -62 -271 -151 -298 -147 -18 3 -21 18 -37 193
-57 633 -139 1008 -286 1300 -150 301 -330 455 -741 635 -134 59 -331 151
-438 204 -1 1 15 35 35 76 64 130 131 363 171 590 81 458 49 878 -139 1825
-75 380 -82 429 -200 1390 -102 835 -204 1241 -420 1680 -322 657 -801 1070
-1440 1242 -96 26 -120 28 -275 28 -159 0 -175 -2 -247 -27 -69 -25 -79 -26
-105 -13 -82 40 -288 62 -438 46 -456 -49 -846 -242 -1201 -596 -394 -393
-664 -903 -818 -1545 -66 -273 -114 -572 -216 -1340 -33 -250 -85 -592 -115
-760 -129 -722 -159 -970 -158 -1310 1 -240 13 -391 45 -560 43 -229 143 -471
257 -625 33 -44 56 -83 53 -87 -4 -3 -151 -68 -327 -143 -439 -188 -539 -245
-668 -379 -160 -168 -325 -494 -408 -810 -52 -200 -101 -528 -130 -869 -9
-106 -16 -150 -26 -154 -19 -7 -134 41 -228 95 -101 58 -215 171 -296 294
-114 173 -173 331 -189 511 -14 155 -14 7644 0 7788 25 267 117 450 328 658
148 145 255 201 492 255 l105 25 3918 0 c3899 1 3919 1 4018 -19z m-4242
-1800 c25 -340 74 -609 151 -841 82 -247 157 -371 290 -477 30 -24 70 -56 88
-72 36 -31 166 -68 196 -57 9 4 22 20 27 36 9 25 21 33 72 50 137 45 314 65
431 49 126 -17 256 -106 457 -313 170 -174 170 -175 177 -424 2 -96 -1 -234
-8 -305 -22 -251 -96 -615 -164 -821 -111 -330 -311 -590 -649 -844 -404 -303
-734 -412 -1068 -355 -316 54 -707 282 -1006 586 -109 110 -164 180 -240 303
-151 243 -226 477 -295 925 -25 163 -31 236 -35 440 -6 282 2 354 43 372 17 8
38 39 65 93 21 45 39 86 39 92 0 16 116 121 177 159 96 62 190 87 345 92 156
5 216 -5 416 -70 67 -21 135 -38 150 -36 24 3 27 7 27 38 0 29 -7 39 -50 72
-27 21 -87 57 -132 79 l-83 41 0 122 c0 218 42 508 115 790 46 180 128 436
120 376 -3 -19 -10 -73 -17 -120 -17 -121 -13 -477 6 -645 28 -233 85 -433
174 -612 47 -93 92 -141 165 -178 56 -27 87 -31 105 -13 18 18 15 37 -23 127
-125 296 -153 708 -93 1374 6 70 12 126 13 125 2 -2 8 -73 14 -158z m485 17
c69 -289 146 -512 240 -692 70 -134 198 -326 267 -400 l57 -60 -107 -26 c-59
-15 -138 -41 -174 -60 -37 -18 -68 -31 -70 -28 -2 2 -27 83 -56 179 -59 197
-99 388 -135 642 -29 200 -63 569 -52 558 3 -3 16 -54 30 -113z m-1218 -143
c-51 -206 -60 -285 -61 -529 0 -267 19 -398 72 -485 2 -3 -66 -5 -150 -5 -122
0 -163 -4 -207 -19 -102 -35 -171 -66 -220 -102 -28 -20 -54 -34 -60 -32 -6 2
24 71 65 153 41 83 73 139 69 125 -3 -14 -15 -62 -27 -107 -11 -45 -18 -85
-15 -89 16 -16 48 22 72 83 14 38 55 148 91 247 37 98 93 242 126 320 68 158
259 549 266 543 2 -3 -7 -49 -21 -103z m1614 -49 c100 -311 307 -736 461 -947
27 -38 45 -68 41 -68 -4 0 -32 9 -62 19 -72 23 -125 88 -213 259 -114 223
-189 437 -237 677 -12 61 -24 119 -27 130 -14 50 16 -7 37 -70z m-2692 -1592
l3 -71 -31 -7 c-62 -14 -124 -114 -137 -222 -5 -34 -2 -43 16 -52 31 -17 58 2
72 52 6 23 15 53 20 66 9 23 10 23 29 6 11 -10 29 -38 41 -62 22 -46 23 -89 3
-276 -9 -76 25 -185 75 -240 31 -34 37 -52 63 -175 41 -199 41 -200 -45 -122
-97 89 -207 287 -270 486 -76 240 -76 467 0 607 37 67 67 89 117 85 l41 -3 3
-72z m4133 54 c69 -45 112 -195 112 -382 -1 -174 -52 -372 -145 -563 -76 -156
-189 -260 -302 -279 -43 -7 -43 -13 -13 155 22 121 22 122 57 140 73 36 150
176 150 270 -1 70 -25 179 -44 200 -15 18 -15 23 9 78 68 157 79 163 113 59
27 -85 50 -112 81 -96 27 15 27 41 0 127 -51 165 -114 217 -173 142 -14 -18
-26 -30 -26 -27 0 8 58 177 65 189 11 18 81 11 116 -13z m-247 -640 c5 -48 2
-74 -10 -102 -9 -22 -19 -34 -22 -27 -9 13 9 192 18 192 4 0 10 -29 14 -63z
m-875 -2343 c26 -149 107 -300 194 -364 46 -33 48 -37 44 -75 -6 -53 -125
-369 -197 -520 l-56 -121 -170 -16 c-186 -19 -259 -35 -349 -77 -59 -28 -125
-75 -125 -91 0 -20 33 -15 125 16 135 47 275 74 379 74 47 0 86 -3 86 -6 0 -3
-28 -53 -61 -112 -176 -304 -503 -741 -737 -984 -95 -98 -106 -106 -128 -97
-14 5 -44 9 -68 9 -41 0 -46 4 -152 113 -175 179 -370 426 -548 696 -89 134
-202 334 -208 365 -3 17 4 18 97 17 119 -2 205 -19 345 -66 57 -19 112 -35
121 -35 28 0 30 15 7 45 -46 58 -200 104 -458 135 -96 12 -175 22 -176 23 -1
1 -22 43 -47 92 -77 156 -163 388 -182 496 -7 35 -5 37 39 59 89 43 154 150
202 330 19 74 44 338 44 472 l0 108 198 -133 c108 -73 242 -156 298 -185 267
-136 484 -162 727 -86 159 51 427 200 621 346 l91 69 16 -214 c9 -118 22 -245
28 -283z m-2139 51 c0 -151 -66 -345 -117 -345 -9 0 -13 15 -13 49 0 92 -61
97 -104 8 -52 -106 -41 -223 45 -493 48 -152 231 -518 338 -679 353 -527 394
-580 607 -784 63 -60 149 -133 192 -162 75 -49 78 -52 74 -85 -3 -27 -13 -41
-46 -63 -90 -63 -135 -140 -143 -246 -6 -73 17 -174 52 -227 53 -81 184 -137
272 -118 145 33 233 150 233 310 0 121 -45 204 -158 292 -37 29 -27 52 41 101
128 92 399 400 564 642 57 83 329 502 393 604 29 46 60 107 70 135 10 28 40
103 68 166 151 350 196 629 107 664 -41 15 -55 7 -55 -31 0 -50 -13 -71 -33
-55 -37 31 -106 253 -107 343 l0 26 49 -13 c160 -41 348 -212 436 -396 40 -83
41 -91 19 -195 -41 -198 -180 -392 -331 -459 -60 -27 -71 -39 -44 -53 28 -16
238 -13 284 3 20 8 37 10 37 6 0 -21 -86 -100 -139 -129 -34 -18 -61 -36 -61
-41 0 -21 151 -42 273 -38 135 5 191 21 287 82 52 33 55 34 62 15 10 -27 42
-245 69 -482 22 -183 22 -198 7 -214 -16 -15 -21 -14 -80 15 -35 17 -169 95
-298 173 -330 199 -369 219 -433 219 -47 0 -58 -5 -117 -51 -36 -28 -137 -107
-226 -174 -162 -125 -228 -187 -221 -208 9 -25 61 -5 204 76 301 171 344 191
385 183 21 -4 49 -17 63 -29 l25 -22 -63 -146 c-133 -305 -361 -714 -591
-1059 -140 -211 -231 -336 -254 -346 -23 -12 -941 -17 -984 -6 -23 6 -48 26
-81 68 -57 70 -284 410 -384 574 -173 285 -454 823 -468 897 -6 29 -3 35 27
53 18 11 47 20 63 20 20 0 114 -46 275 -135 229 -126 289 -151 305 -126 11 19
-61 84 -219 198 -89 64 -186 138 -216 163 -80 68 -114 83 -171 77 -60 -7 -103
-29 -374 -192 -303 -181 -351 -207 -377 -203 -16 2 -24 11 -26 29 -2 14 22
139 53 279 45 204 56 271 56 341 l0 87 42 -23 c62 -35 159 -55 268 -55 100 0
159 14 248 59 55 29 51 49 -16 72 -88 30 -175 81 -229 134 -49 48 -123 164
-139 215 -7 21 0 18 44 -23 60 -56 161 -106 232 -114 l49 -6 -34 57 c-51 84
-76 168 -83 271 -5 85 -4 94 22 145 70 139 185 275 292 346 46 31 173 91 196
93 4 1 7 -28 7 -64z m3660 -498 c-5 -60 -16 -134 -25 -165 -39 -131 -113 -258
-204 -347 -53 -51 -65 -53 -32 -6 58 81 177 353 226 516 15 50 29 96 31 104
11 34 12 -2 4 -102z m-2530 -1977 c6 -11 10 -57 8 -103 -3 -74 -5 -82 -23 -82
-18 0 -20 8 -23 89 -2 49 -1 95 2 103 8 19 24 16 36 -7z m-96 -170 c8 -40 48
-80 82 -80 29 0 94 58 94 84 0 24 13 20 47 -16 57 -60 79 -184 49 -271 -53
-148 -221 -196 -329 -93 -52 51 -72 103 -72 191 0 91 21 143 75 189 40 33 46
33 54 -4z"/>
<path d="M4010 6518 c-118 -11 -185 -40 -255 -112 -115 -118 -154 -266 -70
-266 15 0 41 24 84 81 89 114 169 168 286 190 114 22 273 -44 403 -166 44 -41
82 -72 86 -68 17 17 3 73 -30 123 -113 174 -267 240 -504 218z"/>
<path d="M5893 6506 c-121 -30 -247 -121 -304 -220 -25 -44 -40 -116 -23 -116
3 0 33 28 68 63 114 113 256 178 393 179 61 1 81 -3 135 -30 69 -34 129 -90
187 -173 44 -64 83 -77 102 -35 18 39 -46 162 -126 243 -52 51 -72 64 -129 82
-79 24 -218 27 -303 7z"/>
<path d="M4132 6341 c-60 -15 -108 -56 -139 -118 -26 -55 -28 -65 -28 -188 0
-125 1 -132 29 -183 39 -69 103 -128 157 -142 57 -16 107 -1 161 48 59 53 87
123 100 251 10 100 9 109 -12 164 -48 126 -159 195 -268 168z m149 -182 c14
-14 19 -30 17 -52 -3 -29 -7 -32 -39 -35 -41 -3 -61 14 -61 55 0 26 24 53 49
53 7 0 22 -9 34 -21z"/>
<path d="M5848 6320 c-48 -26 -93 -82 -120 -150 -16 -42 -21 -77 -21 -150 -1
-201 73 -299 227 -301 116 -2 161 37 206 180 24 76 26 187 5 259 -18 59 -66
127 -114 159 -44 30 -130 31 -183 3z m200 -162 c15 -13 16 -60 0 -76 -19 -19
-66 -14 -88 8 -27 27 -25 44 7 69 26 21 53 21 81 -1z"/>
<path d="M4888 5920 c-22 -13 -34 -56 -48 -170 -9 -73 -23 -124 -61 -218 -98
-244 -79 -307 119 -399 107 -50 135 -52 140 -10 5 40 -18 70 -98 128 -71 52
-90 74 -90 105 0 10 18 65 41 122 41 106 54 181 61 351 2 62 0 75 -17 87 -22
16 -25 17 -47 4z"/>
<path d="M5170 5248 c-57 -34 -74 -63 -44 -75 9 -3 31 -1 48 7 17 7 49 15 71
19 38 6 40 8 40 41 0 32 -3 35 -30 38 -20 2 -48 -8 -85 -30z"/>
<path d="M4364 4905 c-23 -35 -4 -76 55 -122 110 -83 235 -123 452 -143 305
-29 383 -24 544 30 221 75 357 171 325 230 -18 33 -62 24 -157 -30 -112 -64
-183 -86 -365 -113 -131 -19 -155 -20 -230 -9 -45 7 -123 17 -173 23 -152 17
-307 68 -345 114 -15 18 -63 45 -79 45 -6 0 -18 -11 -27 -25z"/>
<path d="M4827 4443 c-4 -3 -7 -19 -7 -34 0 -24 7 -30 68 -54 158 -64 382 -34
382 51 0 34 -25 43 -78 28 -59 -18 -171 -18 -247 1 -66 16 -108 19 -118 8z"/>
</g>
</svg>
